<svg xmlns="http://www.w3.org/2000/svg" width="64" height="64">
    <path style="fill:#c4a2fc" d="M26.631 48.071h6.756l-3.363-8.91-3.393 8.91z"/>
    <path d="M50 12a13 13 0 0 0-11.993 18.012 17.021 17.021 0 1 0 6.981 6.981A13 13 0 1 0 50 12zM36.669 53.936a1 1 0 0 1-1.288-.583l-1.239-3.282h-8.273l-1.251 3.285a1 1 0 1 1-1.869-.712l6.008-15.774a1.365 1.365 0 0 1 1.268-.87 1.359 1.359 0 0 1 1.261.844l5.964 15.8a1 1 0 0 1-.581 1.292zm13.625-23.867c-.6 0-2.779.01-2.779.01h-.005a1 1 0 0 1-1-1v-8.158a1 1 0 0 1 1-1h2.37a2.873 2.873 0 0 1 2.4 4.465 3.182 3.182 0 0 1-1.982 5.683z"
          style="fill:#c4a2fc"/>
    <path d="M50.294 25.678H48.51v2.4c.658 0 1.456-.006 1.784-.006a1.2 1.2 0 1 0 0-2.391zM49.88 23.675a.877.877 0 0 0 0-1.754h-1.37v1.757z"
          style="fill:#c4a2fc"/>
    <path d="M48 26H29.815A2.967 2.967 0 0 0 30 25V5a3 3 0 0 0-3-3H7a3 3 0 0 0-3 3v20a2.966 2.966 0 0 0 .184 1H4a3 3 0 0 0-3 3v20a3 3 0 0 0 3 3h20a2.981 2.981 0 0 0 2-.78 2.981 2.981 0 0 0 2 .78h20a3 3 0 0 0 3-3V29a3 3 0 0 0-3-3zM6 5a1 1 0 0 1 1-1h20a1 1 0 0 1 1 1v20a1 1 0 0 1-1 1H7a1 1 0 0 1-1-1zm18 45H4a1 1 0 0 1-1-1V29a1 1 0 0 1 1-1h20a1 1 0 0 1 1 1v20a1 1 0 0 1-1 1zm25-1a1 1 0 0 1-1 1H28a1 1 0 0 1-1-1V29a1 1 0 0 1 1-1h20a1 1 0 0 1 1 1z"
          style="fill:#151a6a"/>
    <path d="M15.281 30.969a1.411 1.411 0 0 0-1.256-.84 1.361 1.361 0 0 0-1.263.871L6.851 46.515a1 1 0 1 0 1.869.712l1.227-3.222h8.117l1.215 3.219a1 1 0 1 0 1.871-.706zm-4.572 11.036 3.315-8.705 3.285 8.705zM12.2 23.871s4.207-.019 5.367-.019a5.219 5.219 0 0 0 2.464-9.83 4.62 4.62 0 0 0-3.263-7.893H12.2a1 1 0 0 0-1 1v15.742a1 1 0 0 0 1 1zm5.371-2.019c-.8 0-3.049.009-4.371.014v-6.481c3.673-.015 1.7 0 4.371-.008a3.238 3.238 0 0 1 0 6.475zm-.8-13.723a2.623 2.623 0 1 1 0 5.245h-3.572V8.129zM43.754 44.1a5.651 5.651 0 0 1-.548.566A5.42 5.42 0 0 1 39.48 46a7 7 0 1 1 3.914-12.8 1 1 0 1 0 1.119-1.657A9 9 0 1 0 39.48 48a7.294 7.294 0 0 0 5.806-2.616 1 1 0 0 0-1.532-1.284z"
          style="fill:#151a6a"/>
</svg>